<svg width="105" height="24" viewBox="0 0 105 24" fill="none" xmlns="http://www.w3.org/2000/svg">
<path d="M3.39918 12.3695C4.03221 11.4696 4.99551 10.9996 6.12395 10.9996C8.61477 10.9996 10.6652 13.0007 10.6652 15.4316C10.6652 16.5463 10.2524 17.6341 9.48175 18.4534C8.7111 19.2861 7.51386 19.8501 6.35789 19.8501C5.20193 19.8501 4.07349 19.3667 3.39918 18.44V19.7293H0.247803V17.8893H1.39V10.0594H0.247803V8.21948H3.39918V12.356V12.3695ZM3.31661 15.3778C3.31661 16.882 4.52762 18.0371 6.04138 18.0371C7.55514 18.0371 8.66982 16.8015 8.66982 15.3913C8.66982 13.9811 7.45881 12.7858 6.0001 12.7858C4.54138 12.7858 3.33037 13.9408 3.33037 15.3778H3.31661Z" fill="black" stroke="black" stroke-width="0.35" stroke-miterlimit="10"/>
<path d="M14.147 12.5977C14.6561 11.5904 15.647 11.0801 16.7892 11.0398V13.0543C16.1424 13.0812 15.5506 13.2424 15.0552 13.6856C14.3947 14.2362 14.2983 14.9212 14.2983 15.727V17.9027H15.4406V19.7426H11.147V17.9027H12.2892V12.9738H11.147V11.1338H14.147V12.5977Z" fill="black" stroke="black" stroke-width="0.35" stroke-miterlimit="10"/>
<path d="M21.6056 17.8892H22.7478V19.7292H18.4404V17.8892H19.5964V12.9603H18.4542V11.1204H21.6056V17.8892Z" fill="black" stroke="black" stroke-width="0.35" stroke-miterlimit="10"/>
<path d="M26.1056 20.4679C26.4497 21.1931 27.3167 21.5289 28.0873 21.5289C28.7754 21.5289 29.5047 21.2334 29.9589 20.7365C30.5231 20.0918 30.5644 19.5412 30.5644 18.7354V18.4131C29.9313 19.4069 28.9267 19.8501 27.7433 19.8501C25.2387 19.8501 23.2845 17.8087 23.2845 15.4047C23.2845 13.0006 25.3212 10.9727 27.757 10.9727C28.9405 10.9727 30.0414 11.3756 30.6882 12.3694V11.107H33.6745V12.9469H32.5323V18.5742C32.5323 19.8904 32.4359 20.9245 31.4313 21.9049C30.4956 22.8048 29.2845 23.2077 27.9772 23.2077C26.1469 23.2077 24.2341 22.3213 23.7662 20.4545H26.0919L26.1056 20.4679ZM28.0323 18.037C29.546 18.037 30.702 16.8283 30.702 15.3778C30.702 13.9273 29.4772 12.7858 28.0047 12.7858C26.5323 12.7858 25.335 13.9676 25.335 15.3912C25.335 16.8148 26.5185 18.037 28.0323 18.037Z" fill="black" stroke="black" stroke-width="0.35" stroke-miterlimit="10"/>
<path d="M37.4175 12.4097C37.9817 11.4428 38.9175 10.9324 40.0597 10.9324C41.0781 10.9324 41.9588 11.4025 42.5505 12.1949C43.2111 13.0678 43.2799 13.9005 43.2799 14.9346V17.9028H44.4221V19.7427H40.1285V17.9028H41.2707V15.4719C41.2707 14.8406 41.3258 14.2228 40.968 13.6722C40.6102 13.1216 40.0047 12.8798 39.3716 12.8798C38.7799 12.8798 38.2157 13.1216 37.8579 13.5782C37.4175 14.1154 37.4313 14.6526 37.4313 15.2973V17.9028H38.5735V19.7427H34.2799V17.9028H35.4221V10.0594H34.2799V8.21948H37.4313V12.4097H37.4175Z" fill="black" stroke="black" stroke-width="0.35" stroke-miterlimit="10"/>
<path d="M48.1377 17.8893H49.734V19.7293H48.2478C47.0781 19.7293 46.1148 18.8026 46.1148 17.6476V12.9604H44.7249V11.1204H46.1148V8.21948H48.1239V11.1204H49.6239V12.9604H48.1239V17.8893H48.1377Z" fill="black" stroke="black" stroke-width="0.35" stroke-miterlimit="10"/>
<path d="M20.2018 9.64298C22.9303 9.64298 25.1422 7.48432 25.1422 4.82149C25.1422 2.15865 22.9303 0 20.2018 0C17.4734 0 15.2615 2.15865 15.2615 4.82149C15.2615 7.48432 17.4734 9.64298 20.2018 9.64298Z" fill="black"/>
<path d="M20.2017 2.60537L21.2614 0.577393L21.2201 2.84712L23.1192 1.54438L22.0183 3.53207L24.3164 3.2366L22.3898 4.49905L24.5779 5.26458L22.266 5.51975L23.821 7.19855L21.6605 6.36586L22.2522 8.55501L20.7247 6.83593L20.2017 9.05193L19.6788 6.83593L18.1513 8.55501L18.743 6.36586L16.5825 7.19855L18.1513 5.51975L15.8394 5.26458L18.0137 4.49905L16.0871 3.2366L18.399 3.53207L17.2843 1.54438L19.1834 2.84712L19.1559 0.577393L20.2017 2.60537Z" fill="white"/>
<path d="M50.023 7.33301H48.3441V21.8512H50.023V7.33301Z" fill="white"/>
<path d="M45.8809 18.6414V19.9575H47.2845C47.2845 19.9575 45.8809 20.0247 45.8809 18.6414Z" fill="white"/>
<path d="M50.1606 11.4158H47.9863V12.4499H50.1606V11.4158Z" fill="black"/>
<path d="M51.468 18.9367H52.9542V19.9305H48.9083V18.9367H50.3808V12.4498H48.9083V11.4157H50.367V11.2814C50.3946 10.3278 50.4221 9.54886 51.2065 8.85048C51.7845 8.34013 52.5276 8.17897 53.2845 8.12524V9.0788C52.8579 9.10566 52.4313 9.22653 52.0735 9.49514C51.4817 9.92491 51.4817 10.5427 51.468 11.2008V11.4157H52.9542V12.4498H51.468V18.9367Z" fill="black"/>
<path d="M53.8349 15.7672C53.8349 13.3095 55.8854 11.3352 58.4037 11.3352C60.9221 11.3352 62.9037 13.296 62.9037 15.6866C62.9037 18.0772 60.9083 20.1589 58.3625 20.1589C55.8166 20.1589 53.8212 18.1712 53.8212 15.7672H53.8349ZM61.8303 15.7538C61.8303 13.9138 60.3166 12.3828 58.4037 12.3828C56.4909 12.3828 54.9358 13.887 54.9358 15.7404C54.9358 17.5937 56.4496 19.1248 58.39 19.1248C60.3303 19.1248 61.8441 17.6072 61.8441 15.7538H61.8303Z" fill="black"/>
<path d="M65.9863 13.202C66.3854 12.0201 67.5276 11.5232 68.7662 11.4829V12.4768C66.8533 12.6379 65.9863 13.7392 65.9863 15.5389V18.9367H67.445V19.9306H63.4542V18.9367H64.9129V12.4768H63.4542V11.4829H66.0001V13.202H65.9863Z" fill="black"/>
<path d="M72.9083 12.9468C73.4037 11.953 74.3395 11.3352 75.5505 11.3352C76.7615 11.3352 77.711 11.9127 78.289 12.9468L78.4679 13.2692C78.9496 12.0873 80.1743 11.3352 81.3991 11.3352C83.0642 11.3352 83.9587 12.0604 84.4679 13.2692C84.6881 13.7661 84.7156 14.2362 84.7156 15.1494V18.9368H86.1743V19.9306H82.1835V18.9368H83.6422V15.3912C83.6422 14.6122 83.5321 13.6184 83.1193 13.1617C82.6239 12.6111 81.9496 12.3559 81.2752 12.3559C80.6422 12.3559 79.8991 12.6245 79.445 13.1483C78.8807 13.7795 78.8395 14.3436 78.8395 15.1226V18.9233H80.2982V19.9172H76.3074V18.9233H77.7661V15.3509C77.7661 14.357 77.4908 13.5109 77.2431 13.1617C76.8028 12.5171 76.0596 12.3559 75.3991 12.3559C74.5734 12.3559 74.023 12.6245 73.5826 13.1483C73.0321 13.7795 72.9496 14.451 72.9496 15.2434V18.9368H74.3945V19.9306H70.4037V18.9368H71.8624V12.4768H70.4037V11.4829H72.9496V12.9468H72.9083Z" fill="black"/>
<path d="M94.5413 18.1847C93.7845 19.4606 92.5046 20.1724 91.0046 20.1724C89.4221 20.1724 87.9634 19.4203 87.2065 18.1847C86.7799 17.4863 86.4771 16.6805 86.5184 15.7538C86.5184 14.5316 86.8762 13.9676 87.2478 13.3363C87.9634 12.1142 89.4221 11.3352 90.9909 11.3352C92.5597 11.3352 93.7432 12.047 94.5413 13.3363V11.4829H97.0597V12.4768H95.6285V18.9368H97.0597V19.9306H94.5413V18.1712V18.1847ZM87.6056 15.7672C87.6056 17.5937 89.1606 19.1382 91.0597 19.1382C92.9588 19.1382 94.5551 17.6206 94.5551 15.7404C94.5551 13.8601 93.0001 12.3828 91.101 12.3828C89.2019 12.3828 87.6056 13.9004 87.6056 15.7672Z" fill="black"/>
<path d="M99.8258 18.9366H101.876V19.9304H98.7386V12.4766H97.0735V11.4828H98.7386V8.43408H99.8258V11.4828H101.739V12.4766H99.8258V18.9366Z" fill="black"/>
</svg>
