<svg width="669" height="465" viewBox="0 0 669 465" fill="none" xmlns="http://www.w3.org/2000/svg">
<path d="M54.5451 39.9803C54.5924 43.584 53.9977 47.1673 52.7887 50.5626C51.6497 53.7161 49.8351 56.5827 47.4721 58.9619C45.0643 61.4264 42.1485 63.3372 38.9274 64.5615C35.202 65.9142 31.2603 66.5736 27.2972 66.5071C23.2519 66.5855 19.2273 65.9097 15.4297 64.5141C12.1957 63.3152 9.27464 61.401 6.88504 58.9145C4.59633 56.5218 2.83381 53.6769 1.71079 50.5626C0.540721 47.1586 -0.0372837 43.5794 0.00186316 39.9803V0.0715332H14.2429V39.4583C14.2332 41.3502 14.5546 43.2292 15.1923 45.0105C15.8079 46.6389 16.726 48.1362 17.8981 49.4237C19.07 50.685 20.493 51.6872 22.0755 52.3658C23.7238 53.0754 25.5027 53.4311 27.2972 53.4098C29.0995 53.4099 30.8805 53.0215 32.519 52.2709C34.0798 51.5783 35.4846 50.5776 36.6489 49.3288C37.8226 48.0512 38.7267 46.5502 39.3072 44.9156C39.9719 43.1731 40.3098 41.3232 40.3041 39.4583V0.0715332H54.5451V39.9803Z" fill="white"/>
<path d="M69.0234 0.0715332H88.3913L115.877 45.1528V0.0715332H130.118V64.8462H111.699L83.4544 19.0531V65.036H69.2133L69.0234 0.0715332Z" fill="white"/>
<path d="M144.928 0.0715332H188.886V13.3587H159.169V25.412H187.224V38.5567H159.169V51.7015H190.5V64.8462H144.928V0.0715332Z" fill="white"/>
<path d="M224.583 31.059L203.222 0.0715332H221.118L234.884 22.7071L248.176 0.0715332H265.408L244.473 30.8217L267.876 64.8462H249.98L234.172 38.8414L218.839 64.8462H201.94L224.583 31.059Z" fill="white"/>
<path d="M280.74 0.0713978H304.76C307.948 0.0473553 311.129 0.349471 314.254 0.973024C317.051 1.50188 319.713 2.58275 322.087 4.15244C324.429 5.67966 326.316 7.81108 327.546 10.3215C328.968 13.2777 329.652 16.5341 329.54 19.8123C329.64 23.0744 329.008 26.3176 327.688 29.3031C326.564 31.741 324.831 33.849 322.657 35.4246C320.389 37.0072 317.82 38.1056 315.109 38.6515C311.989 39.3162 308.805 39.6345 305.615 39.6006H294.982V64.7986H280.74V0.0713978ZM294.982 27.4523H304.476C305.718 27.463 306.958 27.3517 308.178 27.1202C309.298 26.8835 310.372 26.4668 311.359 25.8864C312.304 25.2818 313.099 24.4705 313.685 23.5137C314.289 22.3417 314.583 21.0349 314.539 19.7173C314.553 18.3366 314.12 16.9884 313.305 15.8736C312.524 14.8743 311.515 14.0769 310.362 13.5483C309.119 12.974 307.786 12.6207 306.422 12.5043C304.95 12.5043 303.526 12.2671 302.197 12.2671H294.982V27.4523Z" fill="white"/>
<path d="M342.784 0.0715332H386.694V13.3587H357.025V25.412H385.08V38.5567H357.025V51.7015H388.356V64.8462H342.784V0.0715332Z" fill="white"/>
<path d="M498.771 12.7417H485.907V0.0715332H531.668V12.7417H513.202V64.9411H498.961L498.771 12.7417Z" fill="white"/>
<path d="M547.191 0.0715332H591.148V13.2163H561.479V25.3171H589.534V38.4144H561.527V51.5591H592.857V64.7039H547.286L547.191 0.0715332Z" fill="white"/>
<path d="M608.332 0.0713028H629.694C634.666 0.0469141 639.622 0.620482 644.457 1.77965C648.862 2.79702 653.014 4.70242 656.657 7.37922C660.18 10.0189 663.014 13.4701 664.917 17.4395C667.094 22.165 668.15 27.3293 668.002 32.5298C668.122 37.0565 667.199 41.55 665.306 45.6639C663.413 49.7777 660.6 53.4019 657.084 56.2568C653.65 59.029 649.719 61.1226 645.501 62.4258C641.038 63.861 636.376 64.5817 631.688 64.5613H608.427L608.332 0.0713028ZM622.573 51.5589H629.979C633.08 51.5881 636.172 51.2374 639.188 50.5149C641.834 49.9413 644.326 48.8087 646.498 47.1931C648.559 45.5723 650.189 43.4701 651.245 41.0715C652.527 38.1605 653.127 34.9959 653.002 31.818C653.104 29.0599 652.568 26.3155 651.435 23.7983C650.333 21.5203 648.706 19.5361 646.688 18.0089C644.587 16.2834 642.144 15.022 639.52 14.3075C636.738 13.5379 633.863 13.1547 630.976 13.1686H622.573V51.5589Z" fill="white"/>
<path d="M473.185 76.8047V92.2272H447.124V122.123H473.185V137.688H403.499V122.123H433.737V92.2272H403.499V76.8047H473.185Z" fill="white"/>
<path d="M438.009 151.07C443.227 150.997 448.408 151.965 453.247 153.917C457.625 155.668 461.575 158.338 464.83 161.747C468.067 165.195 470.57 169.263 472.188 173.706C473.937 178.542 474.805 183.653 474.751 188.796C474.824 194.018 473.955 199.21 472.188 204.124C470.58 208.557 468.075 212.612 464.83 216.035C461.564 219.444 457.618 222.128 453.247 223.912C443.448 227.645 432.618 227.645 422.819 223.912C418.442 222.139 414.493 219.453 411.236 216.035C407.959 212.628 405.436 208.569 403.831 204.124C402.085 199.27 401.217 194.144 401.267 188.986C401.213 183.843 402.081 178.732 403.831 173.896C405.448 169.442 407.969 165.37 411.236 161.937C414.482 158.517 418.435 155.845 422.819 154.107C427.628 152.09 432.794 151.058 438.009 151.07ZM438.009 167.062C434.932 167.024 431.874 167.555 428.99 168.628C426.338 169.571 423.912 171.058 421.869 172.994C419.834 174.94 418.219 177.282 417.122 179.875C415.99 182.711 415.426 185.742 415.461 188.796C415.429 191.865 415.994 194.911 417.122 197.765C418.218 200.344 419.834 202.671 421.869 204.598C423.922 206.533 426.344 208.034 428.99 209.012C431.883 210.045 434.937 210.559 438.009 210.53C441.081 210.548 444.132 210.034 447.029 209.012C449.684 208.024 452.119 206.524 454.197 204.598C456.249 202.685 457.867 200.355 458.944 197.765C460.046 194.907 460.562 191.857 460.463 188.796C460.506 185.737 459.924 182.701 458.754 179.875C457.678 177.27 456.06 174.924 454.007 172.994C451.939 171.067 449.5 169.581 446.839 168.628C444.011 167.59 441.022 167.06 438.009 167.062Z" fill="white"/>
<path d="M472.995 242.087V257.462H403.071V242.087H472.995Z" fill="white"/>
<path d="M454.814 322.759C456.66 321.255 458.124 319.336 459.086 317.159C460.073 314.72 460.542 312.102 460.463 309.471C460.484 306.706 459.901 303.969 458.754 301.452C457.635 298.995 456.019 296.798 454.007 294.998C451.907 293.148 449.475 291.714 446.839 290.775C443.948 289.73 440.893 289.216 437.819 289.256C434.745 289.203 431.687 289.718 428.8 290.775C426.184 291.706 423.769 293.122 421.679 294.951C419.701 296.706 418.088 298.835 416.932 301.214C415.835 303.662 415.269 306.315 415.271 308.997C415.365 311.961 416.215 314.852 417.739 317.396C419.048 319.829 420.94 321.9 423.246 323.423L413.752 336.236C409.707 333.416 406.533 329.52 404.59 324.989C402.595 320.509 401.576 315.656 401.6 310.753C401.545 305.61 402.413 300.499 404.163 295.662C405.78 291.208 408.301 287.137 411.568 283.704C414.83 280.302 418.778 277.633 423.151 275.874C432.95 272.141 443.78 272.141 453.579 275.874C457.947 277.642 461.894 280.31 465.162 283.704C468.399 287.151 470.902 291.219 472.52 295.662C474.27 300.499 475.138 305.61 475.083 310.753C475.069 312.819 474.894 314.882 474.561 316.922C474.188 319.094 473.6 321.224 472.805 323.281C472.008 325.394 470.956 327.402 469.672 329.26C468.341 331.185 466.742 332.91 464.925 334.385L454.814 322.759Z" fill="white"/>
<path d="M472.995 350.662V398.116H458.754V366.037H445.747V396.36H431.506V366.037H417.265V399.919H403.024V350.662H472.995Z" fill="white"/>
<path d="M455.715 453.257C457.347 451.934 458.566 450.172 459.228 448.18C459.984 446.24 460.401 444.186 460.462 442.105C460.455 440.938 460.312 439.776 460.035 438.641C459.788 437.465 459.372 436.33 458.801 435.272C458.287 434.257 457.539 433.378 456.617 432.71C455.614 432.064 454.44 431.734 453.247 431.761C452.319 431.715 451.394 431.91 450.563 432.325C449.731 432.741 449.021 433.363 448.5 434.133C447.244 435.948 446.282 437.95 445.652 440.065C444.845 442.485 444.038 445.095 443.278 447.847C442.483 450.572 441.351 453.186 439.908 455.63C438.444 458.043 436.447 460.088 434.069 461.609C431.105 463.321 427.71 464.145 424.29 463.982C420.778 464.073 417.296 463.324 414.132 461.799C411.304 460.421 408.834 458.407 406.916 455.915C404.96 453.355 403.524 450.437 402.691 447.325C401.727 443.978 401.248 440.511 401.267 437.028C401.27 432.707 402.025 428.42 403.498 424.358C404.958 420.314 407.237 416.615 410.192 413.491L422.249 424.453C420.215 426.041 418.588 428.091 417.502 430.432C416.372 432.753 415.787 435.301 415.793 437.882C415.797 439.159 415.94 440.432 416.22 441.678C416.518 442.884 416.965 444.047 417.549 445.143C418.142 446.105 418.916 446.943 419.828 447.61C420.806 448.229 421.946 448.542 423.103 448.512C424.017 448.504 424.916 448.287 425.731 447.875C426.546 447.463 427.255 446.869 427.803 446.139C429.148 444.284 430.205 442.236 430.936 440.065C431.743 437.645 432.645 435.035 433.499 432.188C434.321 429.412 435.485 426.75 436.965 424.263C438.399 421.848 440.343 419.775 442.661 418.189C445.511 416.452 448.823 415.624 452.155 415.816C455.575 415.736 458.962 416.485 462.029 417.999C464.794 419.452 467.221 421.474 469.15 423.931C471.093 426.487 472.542 429.384 473.422 432.472C474.373 435.708 474.852 439.065 474.846 442.438C474.87 446.327 474.31 450.198 473.184 453.922C472.042 457.611 470.115 461.011 467.536 463.887L455.715 453.257Z" fill="white"/>
<path d="M416.932 47.5256C415.539 44.5661 414.934 41.2969 415.176 38.0348C415.246 35.1569 415.925 32.3265 417.17 29.7304C418.503 27.1155 420.305 24.7673 422.486 22.8021C424.635 20.9821 427.095 19.5672 429.749 18.6261C432.808 17.6127 436.022 17.1468 439.243 17.25C442.495 17.2791 445.713 17.9065 448.737 19.1007C451.659 20.1394 454.351 21.7348 456.665 23.7986C458.798 26.0063 460.518 28.5777 461.744 31.3913C462.795 34.1929 463.248 37.1833 463.073 40.1702C463.113 42.6988 462.611 45.2066 461.602 47.5256C460.595 49.7387 459.214 51.7615 457.519 53.5048L467.631 64.4192C469.07 63.1959 470.347 61.7923 471.428 60.2433C472.835 58.263 474.014 56.1298 474.941 53.8844C475.82 51.7235 476.487 49.4828 476.935 47.1934C478.302 39.9636 477.746 32.5015 475.321 25.5544C473.758 20.7538 471.221 16.3273 467.868 12.552C464.468 8.85333 460.327 5.91079 455.715 3.9154C445.526 -0.264873 434.155 -0.552015 423.768 3.10868C423.483 3.19671 423.211 3.32451 422.961 3.48831L422.486 3.58322L421.727 3.96285C420.904 4.2911 420.11 4.68795 419.353 5.1492C416.096 6.98571 413.148 9.3238 410.619 12.0775C407.417 15.8687 404.997 20.2553 403.498 24.985C401.758 29.8051 400.921 34.9046 401.03 40.0279C401.096 42.2395 401.318 44.4436 401.694 46.624C402.07 48.9246 402.674 51.1819 403.498 53.3624L403.926 54.3115C404.717 56.2208 405.72 58.0354 406.916 59.7213C407.957 61.2879 409.22 62.6947 410.666 63.8972L411.806 62.7109L420.92 53.2201C419.314 51.5315 417.97 49.612 416.932 47.5256Z" fill="white"/>
</svg>
