<svg id="a89d8707-0a91-4196-8622-50a0ddb6919a" data-name="Layer 1" xmlns="http://www.w3.org/2000/svg" viewBox="0 0 421.56 27.64"><path d="M36.13,38.26h-1.7c-.47-3,.58-4-4.06-4h-3v9.35c0,2.09,0,2.63,3.71,2.63v1.32c-1.81,0-3.63,0-5.44-.08s-3.64,0-5.45.08V46.26c3.75,0,3.71-.54,3.71-2.63V24.77c0-2.08,0-2.63-3.71-2.63V20.83h21v6.8h-2c-.31-4.91-.31-5.33-5.21-5.33H27.35V33h3c3.48,0,4.06-.24,4.06-4h1.7Z" transform="translate(-20.17 -20.25)" fill="#292728"/><path d="M153.67,32.46c3.67,1.32,6.92,3,6.92,7.46,0,6.3-5.26,8-10.59,8a20.36,20.36,0,0,1-8.35-1.67v-7h2.59c.39,3.79-.58,7.34,6.26,7.34,3.4,0,6.61-1.55,6.61-5.41,0-4.29-4.18-5.25-7.5-6.42-3.63-1.31-6.88-2.62-6.88-7.11,0-5.14,4.18-7.38,8.81-7.38a22.35,22.35,0,0,1,8,1.47v6.34h-2.17c-.39-3,.31-6.34-5.64-6.34-3.09,0-5.61,1.35-5.61,4.75,0,2.28,1.09,3.56,3.13,4.41Z" transform="translate(-20.17 -20.25)" fill="#292728"/><path d="M253.46,38.8c-.08,5.14,2.09,7.69,7.38,7.69,5.69,0,8.39-2.31,8.39-8.27V24.7c0-2.29,0-2.63-4.17-2.63V20.75c1.58,0,3.2,0,4.79.08s3.21,0,4.79-.08v1.32c-3.55,0-3.47.65-3.47,2.63V38.18c0,7.54-4.11,9.71-11.52,9.71-6,0-9.67-2.44-9.67-8.66V24.7c0-2,.08-2.63-3.51-2.63V20.75c1.62,0,3.44,0,5.25.08s3.64,0,5.45-.08v1.32c-3.75,0-3.71.54-3.71,2.63Z" transform="translate(-20.17 -20.25)" fill="#292728"/><path d="M58.41,27.34H42.57v1.18h.1c1.46,0,2.12.11,2.42.41s.27.73.27,1.42V44.54c0,.74,0,1.2-.27,1.47s-1,.41-2.42.41h-.1V47.6H58.51V41.49H56.79v.09c-.4,4-.57,4.52-3.53,4.58H48.16V37.62h2.16c2.72,0,2.75.41,2.84,1.76l.12,1.23h1.46V33.46H53.27v.1c0,2.73-.33,2.89-3,2.89H48.16V28.64H53c3.57,0,3.58.22,3.81,3.85v.09l.09.06h1.64v-5.3Z" transform="translate(-20.17 -20.25)" fill="#292728"/><path d="M81.06,46.47a3.18,3.18,0,0,1-2.57-1.62l-.18-.22c-.83-1.09-4.1-6-5-7.5,3.44-.43,5.07-2.06,5.07-5.17,0-4.29-2.63-4.62-6.36-4.62l-5.47.06-4.19-.06v1.18h.1c1.47,0,2.12.11,2.42.41s.27.73.27,1.42V44.6c0,.74,0,1.2-.27,1.47s-.95.4-2.42.4h-.1v1.19l4.19-.06,4.18.06V46.47h-.1c-1.46,0-2.12-.11-2.42-.4s-.26-.71-.26-1.38V37.57H68a5.6,5.6,0,0,1,1.87.19c.35.13,1.71,1.57,6.87,9.85a11,11,0,0,0,1.14,0l1.06,0,2.18.06V46.48Zm-11.87-10h-.28l-1-.06V28.66l1,0,2.17-.05c3.13,0,4.13.93,4.13,3.85C75.21,36.16,72.72,36.45,69.19,36.45Z" transform="translate(-20.17 -20.25)" fill="#292728"/><path d="M101.26,46.47a3.18,3.18,0,0,1-2.57-1.62l-.17-.22c-.83-1.09-4.11-6-5.06-7.5,3.45-.43,5.08-2.06,5.08-5.17,0-4.29-2.64-4.62-6.36-4.62l-5.48.06-4.18-.06v1.18h.09c1.47,0,2.12.11,2.42.41s.27.73.27,1.42V44.6c0,.74,0,1.2-.27,1.47s-1,.4-2.42.4h-.09v1.19l4.18-.06,4.18.06V46.47h-.09c-1.47,0-2.13-.11-2.42-.4s-.27-.71-.27-1.38V37.57h.12a5.57,5.57,0,0,1,1.87.19c.35.13,1.72,1.57,6.88,9.85a11,11,0,0,0,1.14,0l1.06,0,2.18.06V46.48Zm-11.86-10h-.29l-1-.06V28.66l1,0,2.17-.05c3.13,0,4.14.93,4.14,3.85C95.42,36.16,92.92,36.45,89.4,36.45Z" transform="translate(-20.17 -20.25)" fill="#292728"/><path d="M111.6,27.34l-4.09.06-4.18-.06v1.18h.1c2.21,0,2.68.06,2.68,1.88V44.6c0,1.81-.47,1.87-2.68,1.87h-.1v1.19l4.18-.06,4.19.06V46.47h-.1c-2.22,0-2.69-.06-2.69-1.87V30.4c0-1.81.52-1.88,2.69-1.88h.1V27.34Z" transform="translate(-20.17 -20.25)" fill="#292728"/><path d="M116,32.6c0,3.53,2.65,4.5,5.22,5.42l.7.24c2.39.81,4.86,1.63,4.86,4.48s-2.51,4-4.86,4c-4.3,0-4.4-1.86-4.52-4.21l-.09-1.3h-2.13v5.34a14.48,14.48,0,0,0,6.36,1.34c3.67,0,8-1.05,8-6.06,0-3.51-2.6-4.74-5.25-5.69L121,34.94a3.16,3.16,0,0,1-2.29-3.21c0-2.2,1.5-3.47,4.11-3.47,3.75,0,3.89,1.81,4,3.73l.1,1h1.81V28.1l-.06,0a17,17,0,0,0-6-1.1C119.46,27,116,28.45,116,32.6Z" transform="translate(-20.17 -20.25)" fill="#292728"/><path d="M180,27.4H162.54v5.3h1.63v-.09c.6-4,.75-3.95,4.6-3.92h1.15V44.6c0,1.82-.45,1.87-2.83,1.87H167v1.19l4.32-.06,4.33.06V46.47h-.1c-2.38,0-2.83,0-2.83-1.87V28.69h1.11c4,0,4,0,4.64,3.92l0,.09h1.62V27.4Z" transform="translate(-20.17 -20.25)" fill="#292728"/><path d="M201,46.47c-2.07.16-2.83-1.91-3.2-2.91l-.07-.18-6.11-16h-2c-.09.06-6.32,15.19-6.32,15.19l-.22.52a17.89,17.89,0,0,1-1.21,2.5,1.94,1.94,0,0,1-1.67.76l-.56.06v1.23l3.52-.06,3.51.06V46.42h-.15a3,3,0,0,1-2-.44,1,1,0,0,1-.27-.74l.26-1.25s1.65-4.6,1.77-5h6.89c0,.15,1.79,4.77,1.79,4.77l.12.3a3.16,3.16,0,0,1,.34,1.26.67.67,0,0,1-.21.49,4,4,0,0,1-2.21.55h-.1v1.24l4.1-.06,4.06.06V46.47Zm-14.23-8.72c.1-.25,2.88-7,3-7.38.17.42,2.82,7.22,2.82,7.22l.06.16Z" transform="translate(-20.17 -20.25)" fill="#292728"/><path d="M217.57,27.4H200.08v5.3h1.63v-.09c.59-4,.74-3.95,4.6-3.92h1.15V44.6c0,1.82-.45,1.87-2.83,1.87h-.1v1.19l4.33-.06,4.33.06V46.47h-.1c-2.38,0-2.83,0-2.83-1.87V28.69h1.11c4,0,4,0,4.64,3.92v.09h1.63V27.4Z" transform="translate(-20.17 -20.25)" fill="#292728"/><path d="M235.75,27.34H219.91v1.18h.1c1.47,0,2.12.11,2.42.41s.27.73.27,1.42V44.54c0,.74,0,1.2-.27,1.47s-1,.41-2.42.41h-.1V47.6h15.94V41.49h-1.72v.09c-.4,4-.56,4.52-3.53,4.58H225.5V37.62h2.16c2.72,0,2.75.41,2.84,1.76l.12,1.23h1.46V33.46h-1.47v.1c0,2.73-.33,2.89-3,2.89H225.5V28.64h4.8c3.57,0,3.58.22,3.81,3.85v.09l.09.06h1.64v-5.3Z" transform="translate(-20.17 -20.25)" fill="#292728"/><path d="M275.93,27.44v1.08h.1c2,0,2.56.08,2.56,1.88V44.6c0,1.74-.38,1.87-2.56,1.87h-.1v1.19l3.49-.06,3.48.06V46.47h-.09c-2.19,0-2.57-.13-2.57-1.87V30.86l12.63,16.7,2,0h.09V30.4c0-1.76.3-1.88,2.4-1.88h.1V27.34L294,27.4l-3.4-.06v1.18h.1c2.18,0,2.57.14,2.57,1.88V43.73L281.06,27.38c-.08,0-1.32,0-1.32,0l-1.23,0-2.58-.06Z" transform="translate(-20.17 -20.25)" fill="#292728"/><path d="M308.63,27.34l-4.08.06-4.18-.06v1.18h.09c2.22,0,2.69.06,2.69,1.88V44.6c0,1.81-.47,1.87-2.69,1.87h-.09v1.19l4.18-.06,4.18.06V46.47h-.1c-2.21,0-2.68-.06-2.68-1.87V30.4c0-1.81.51-1.88,2.68-1.88h.1V27.34Z" transform="translate(-20.17 -20.25)" fill="#292728"/><path d="M330.69,27.34l-3.16.06-3.25-.06v1.11l.46.07c.73.08,1.73.21,1.8.93a1.39,1.39,0,0,1,0,.3,3.81,3.81,0,0,1-.14.91l-4.78,13.65c-.18-.49-4.9-13.66-4.9-13.66a3.9,3.9,0,0,1-.26-1.17.49.49,0,0,1,0-.12c0-.72.94-.79,1.77-.85l.64-.06V27.34l-4.15.06-4.15-.06v1.12h.09c1.59,0,1.9.16,2.7,2.26L319.7,47.6h2c.09-.07,6.61-16.88,6.61-16.88.54-1.69.72-1.86,2.4-2.26l.07,0v-1.1Z" transform="translate(-20.17 -20.25)" fill="#292728"/><path d="M348.2,27.34H332.37v1.18h.09c1.47,0,2.12.11,2.42.41s.27.73.27,1.42V44.54c0,.74,0,1.2-.27,1.47s-.95.41-2.42.41h-.09V47.6H348.3V41.49h-1.72v.09c-.4,4-.57,4.52-3.53,4.58H338V37.62h2.16c2.72,0,2.75.41,2.84,1.76l.12,1.23h1.46V33.46h-1.47v.1c0,2.73-.33,2.89-2.95,2.89H338V28.64h4.8c3.57,0,3.58.22,3.82,3.85v.09l.09.06h1.64v-5.3Z" transform="translate(-20.17 -20.25)" fill="#292728"/><path d="M370.85,46.47a3.18,3.18,0,0,1-2.57-1.62l-.18-.22c-.83-1.09-4.1-6-5.05-7.5,3.45-.43,5.07-2.06,5.07-5.17,0-4.29-2.63-4.62-6.35-4.62l-5.48.06-4.18-.06v1.18h.09c1.47,0,2.12.11,2.42.41s.27.73.27,1.42V44.6c0,.74,0,1.2-.27,1.47s-.95.4-2.42.4h-.09v1.19l4.18-.06,4.18.06V46.47h-.09c-1.47,0-2.13-.11-2.43-.4s-.26-.71-.26-1.38V37.57h.12a5.57,5.57,0,0,1,1.87.19c.35.13,1.71,1.57,6.88,9.85a11,11,0,0,0,1.14,0l1.06,0,2.18.06V46.48ZM359,36.45h-.29l-1-.06V28.66l1,0,2.17-.05c3.13,0,4.14.93,4.14,3.85C365,36.16,362.51,36.45,359,36.45Z" transform="translate(-20.17 -20.25)" fill="#292728"/><path d="M373.47,32.6c0,3.53,2.65,4.49,5.22,5.42l.7.24c2.39.81,4.86,1.63,4.86,4.48s-2.51,4-4.86,4c-4.3,0-4.39-1.86-4.52-4.21l-.08-1.3h-2.13v5.34A14.43,14.43,0,0,0,379,47.88c3.67,0,8-1.05,8-6.06,0-3.51-2.59-4.74-5.25-5.69l-3.33-1.19a3.16,3.16,0,0,1-2.29-3.21c0-2.2,1.5-3.47,4.11-3.47,3.76,0,3.9,1.81,4,3.73l.09,1h1.81V28.1l-.06,0a17,17,0,0,0-6-1.1C376.93,27,373.47,28.45,373.47,32.6Z" transform="translate(-20.17 -20.25)" fill="#292728"/><path d="M399.48,27.34l-4.09.06-4.18-.06v1.18h.09c2.22,0,2.69.06,2.69,1.88V44.6c0,1.81-.47,1.87-2.69,1.87h-.09v1.19l4.19-.06,4.18.06V46.47h-.1c-2.22,0-2.69-.06-2.69-1.87V30.4c0-1.81.51-1.88,2.69-1.88h.1V27.34Z" transform="translate(-20.17 -20.25)" fill="#292728"/><path d="M420.41,27.4H402.92v5.3h1.63v-.09c.59-4,.75-3.95,4.6-3.92h1.15V44.6c0,1.82-.45,1.87-2.83,1.87h-.1v1.19l4.33-.06,4.33.06V46.47H416c-2.39,0-2.84,0-2.84-1.87V28.69h1.11c4,0,4,0,4.64,3.92v.09h1.63V27.4Z" transform="translate(-20.17 -20.25)" fill="#292728"/><path d="M441.62,27.34l-3.13.06-3.22-.06v1.12h.09c.64,0,2,0,2,.89v.06a2.39,2.39,0,0,1-.51,1.22s-3.48,6.09-3.89,6.82l-4.3-7.08-.1-.15a1.35,1.35,0,0,1-.3-.71.71.71,0,0,1,0-.14c.14-.78.91-.82,1.89-.88l.55,0V27.34l-4.36.06-4.39-.06v1.11H422c2.11.19,2.73,1.19,4.1,3.37l.93,1.46h0l2.75,4.38a3.07,3.07,0,0,1,.71,2.35V44.6c0,1.82-.45,1.87-2.85,1.87h-.1v1.19l4.36-.06,4.35.06V46.47h-.09c-2.41,0-2.86,0-2.86-1.87V40.14a3.71,3.71,0,0,1,.59-1.87L438,31.84l.51-.86c.82-1.4,1.36-2.33,3.16-2.52h.08V27.34Z" transform="translate(-20.17 -20.25)" fill="#292728"/></svg>