<svg width="670" height="468" viewBox="0 0 670 468" fill="none" xmlns="http://www.w3.org/2000/svg">
<path d="M54.7072 441.334C54.7546 444.949 54.1581 448.544 52.9456 451.95C51.8144 455.119 49.993 457.997 47.6131 460.377C45.1982 462.849 42.2737 464.766 39.0431 465.994C35.2497 467.391 31.2295 468.069 27.1879 467.994C23.1305 468.073 19.094 467.394 15.2851 465.994C12.0415 464.792 9.11175 462.871 6.71505 460.377C4.47437 457.951 2.77087 455.079 1.71587 451.95C0.542327 448.535 -0.0373945 444.944 0.00186869 441.334L0.00186869 401.486H14.2852L14.2852 440.81C14.2755 442.708 14.5978 444.593 15.2375 446.38C15.8549 448.014 16.7757 449.516 17.9513 450.808C19.1267 452.073 20.5539 453.078 22.1411 453.759C23.7943 454.471 25.5785 454.828 27.3783 454.807C29.179 454.837 30.965 454.479 32.6156 453.759C34.1811 453.064 35.59 452.06 36.7577 450.808C37.935 449.526 38.8418 448.02 39.424 446.38C40.1022 444.602 40.4414 442.713 40.4238 440.81L40.4238 401.486H54.7072L54.7072 441.334Z" fill="white"/>
<path d="M69.2286 401.438H88.654L116.221 446.523V401.438H130.504L130.504 466.28H112.031L83.4644 420.148V466.28H69.181L69.2286 401.438Z" fill="white"/>
<path d="M145.359 401.438L189.447 401.438V414.626L159.642 414.626V426.718L187.781 426.718V439.905L159.642 439.905L159.642 453.093L191.066 453.093V466.28L145.359 466.28L145.359 401.438Z" fill="white"/>
<path d="M225.251 432.383L203.826 401.438H221.775L235.582 424.147L248.913 401.438H266.196L245.2 432.145L268.672 466.28H250.723L234.868 440.191L219.49 466.28H202.54L225.251 432.383Z" fill="white"/>
<path d="M281.575 401.438H305.666C308.863 401.414 312.053 401.717 315.188 402.343C317.993 402.874 320.664 403.958 323.044 405.533C325.374 407.026 327.264 409.113 328.519 411.579C329.945 414.545 330.631 417.812 330.519 421.1C330.62 424.373 329.985 427.627 328.662 430.622C327.534 433.068 325.796 435.183 323.616 436.763C321.341 438.351 318.764 439.453 316.045 440.001C312.916 440.667 309.723 440.987 306.523 440.953H295.858V466.232H281.575V401.438ZM295.858 428.908H305.38C306.626 428.919 307.87 428.807 309.094 428.575C310.217 428.337 311.295 427.919 312.284 427.337C313.232 426.73 314.03 425.917 314.617 424.957C315.227 423.782 315.522 422.47 315.474 421.148C315.547 419.725 315.145 418.318 314.331 417.149C313.548 416.146 312.536 415.346 311.379 414.816C310.133 414.24 308.796 413.886 307.428 413.769C305.952 413.769 304.523 413.769 303.19 413.769H295.858V428.908Z" fill="white"/>
<path d="M343.803 401.438H387.843V414.626H358.086V426.718H386.224V439.905H358.086V453.093H389.509V466.28H343.803V401.438Z" fill="white"/>
<path d="M500.253 412.817H487.351V400.153L533.248 400.153V412.817L514.727 412.817V465.185H500.444L500.253 412.817Z" fill="white"/>
<path d="M548.817 400.153H592.905V413.34H563.148V425.433H591.286V438.62H563.195V451.807H594.619V464.995H548.912L548.817 400.153Z" fill="white"/>
<path d="M610.14 400.153H631.565C636.552 400.129 641.523 400.704 646.372 401.867C650.778 402.925 654.934 404.833 658.608 407.485C662.133 410.162 664.972 413.638 666.893 417.625C669.071 422.351 670.13 427.515 669.987 432.717C670.106 437.518 669.095 442.279 667.035 446.618C665.123 450.516 662.395 453.958 659.037 456.711C655.58 459.474 651.641 461.572 647.42 462.9C642.943 464.34 638.267 465.063 633.565 465.042H610.235L610.14 400.153ZM624.423 451.807H631.851C634.958 451.789 638.055 451.438 641.087 450.76C643.732 450.159 646.227 449.025 648.419 447.427C650.486 445.801 652.121 443.692 653.181 441.286C654.49 438.289 655.093 435.031 654.942 431.764C655.017 428.903 654.413 426.064 653.181 423.481C652.062 421.204 650.433 419.216 648.419 417.673C646.293 416.092 643.886 414.929 641.325 414.245C638.535 413.473 635.651 413.088 632.755 413.102H624.328L624.423 451.807Z" fill="white"/>
<path d="M403.745 388.394V372.922H429.884V342.786H403.745V327.456H473.877V342.786H443.548V372.779H473.877V388.251L403.745 388.394Z" fill="white"/>
<path d="M438.978 313.888C433.759 313.961 428.579 312.99 423.742 311.032C419.339 309.273 415.362 306.595 412.077 303.176C408.847 299.705 406.339 295.628 404.697 291.179C402.954 286.357 402.083 281.263 402.126 276.135C402.065 270.929 402.936 265.753 404.697 260.853C406.328 256.414 408.838 252.35 412.077 248.904C415.37 245.483 419.344 242.79 423.742 241.001C433.57 237.256 444.433 237.256 454.261 241.001C458.654 242.782 462.622 245.472 465.904 248.893C469.186 252.314 471.708 256.39 473.305 260.853C475.051 265.756 475.905 270.932 475.829 276.135C475.883 281.295 475.012 286.422 473.258 291.275C471.654 295.741 469.141 299.826 465.878 303.272C462.613 306.692 458.651 309.371 454.261 311.127C449.4 313.053 444.205 313.991 438.978 313.888ZM438.978 297.844C442.079 297.882 445.162 297.349 448.071 296.273C450.711 295.315 453.126 293.824 455.165 291.893C457.237 289.967 458.862 287.611 459.926 284.99C461.153 282.198 461.801 279.185 461.831 276.135C461.874 273.051 461.291 269.99 460.117 267.137C459.056 264.528 457.43 262.187 455.356 260.282C453.307 258.352 450.896 256.847 448.262 255.854C442.402 253.823 436.029 253.823 430.169 255.854C427.501 256.834 425.056 258.34 422.98 260.282C420.939 262.216 419.318 264.55 418.219 267.137C417.038 269.991 416.423 273.047 416.41 276.135C416.375 279.199 416.941 282.24 418.076 285.086C419.176 287.687 420.796 290.036 422.837 291.989C424.904 293.932 427.352 295.424 430.027 296.369C432.896 297.398 435.929 297.898 438.978 297.844Z" fill="white"/>
<path d="M403.936 222.434V206.962L474.067 206.962V222.434L403.936 222.434Z" fill="white"/>
<path d="M422.171 141.691C420.332 143.193 418.865 145.099 417.886 147.262C416.855 149.699 416.352 152.328 416.41 154.974C416.391 157.743 416.959 160.486 418.076 163.02C419.219 165.472 420.837 167.673 422.837 169.494C424.936 171.36 427.378 172.799 430.027 173.731C435.886 175.763 442.259 175.763 448.119 173.731C450.723 172.786 453.128 171.365 455.213 169.542C457.221 167.802 458.843 165.662 459.974 163.258C461.168 160.826 461.803 158.159 461.831 155.45C461.882 152.518 461.194 149.62 459.831 147.024C458.504 144.593 456.61 142.518 454.308 140.977L463.831 128.123C467.902 130.949 471.101 134.858 473.067 139.406C475.053 143.904 476.059 148.772 476.019 153.689C476.074 158.848 475.203 163.976 473.448 168.828C471.844 173.294 469.331 177.379 466.068 180.825C462.79 184.23 458.832 186.906 454.451 188.68C444.623 192.425 433.761 192.425 423.932 188.68C419.537 186.907 415.563 184.231 412.268 180.825C408.948 177.315 406.373 173.169 404.697 168.637C402.943 163.785 402.072 158.658 402.126 153.498C402.136 151.407 402.327 149.32 402.698 147.262C403.342 142.847 404.969 138.633 407.459 134.931C408.794 133 410.397 131.269 412.22 129.79L422.171 141.691Z" fill="white"/>
<path d="M403.936 113.651V66.0431H418.219V98.2734H431.312V67.8045H445.595V98.2258H459.879V64.234H474.162V113.651H403.936Z" fill="white"/>
<path d="M421.076 10.723C419.425 12.0371 418.2 13.8092 417.552 15.8171C416.827 17.7684 416.441 19.8293 416.41 21.9108C416.424 23.0789 416.552 24.2428 416.791 25.3862C417.074 26.5409 417.489 27.6591 418.029 28.7187C418.55 29.7481 419.319 30.6316 420.266 31.2895C421.258 31.9737 422.442 32.3239 423.647 32.2893C424.576 32.3213 425.498 32.1203 426.33 31.7045C427.162 31.2888 427.876 30.6715 428.408 29.9089C429.677 28.0287 430.671 25.9767 431.36 23.8151C432.169 21.3871 432.931 18.7687 433.74 16.0075C434.521 13.2835 435.658 10.6743 437.121 8.24745C438.526 5.87962 440.466 3.87406 442.786 2.39172C445.673 0.717104 448.974 -0.108045 452.309 0.0113418C455.846 -0.078204 459.354 0.672313 462.545 2.20129C465.536 3.5268 468.165 5.55138 470.211 8.10463C472.173 10.6722 473.613 13.5998 474.448 16.7216C475.399 20.0817 475.863 23.5606 475.829 27.0524C475.881 31.3601 475.189 35.6444 473.781 39.7161C472.281 43.7664 469.982 47.4738 467.021 50.6182L454.927 39.6208C456.993 38.0533 458.631 35.9902 459.688 33.6223C460.985 31.3361 461.72 28.774 461.831 26.1479C461.834 24.8633 461.674 23.5836 461.355 22.3393C461.006 21.1691 460.475 20.0607 459.784 19.0544C459.218 18.068 458.436 17.2218 457.498 16.5788C456.537 15.9539 455.407 15.6383 454.261 15.6742C453.331 15.6722 452.415 15.8913 451.587 16.3135C450.759 16.7356 450.044 17.3488 449.5 18.1022C448.083 19.8198 446.943 21.7471 446.119 23.8151C445.262 26.2431 444.405 28.8615 443.548 31.718C442.733 34.4902 441.565 37.1462 440.073 39.6208C438.661 42.0637 436.706 44.1488 434.359 45.7146C431.515 47.494 428.186 48.3426 424.837 48.1426C421.407 48.2289 418.008 47.4772 414.934 45.9527C412.152 44.5079 409.715 42.4777 407.792 40.0017C405.846 37.4282 404.378 34.5255 403.46 31.4323C402.506 28.1857 402.025 24.8186 402.031 21.4348C402.02 17.53 402.597 13.6459 403.745 9.91372C404.915 6.24049 406.864 2.86288 409.459 0.0113418L421.076 10.723Z" fill="white"/>
<path d="M461.307 417.197C462.787 420.144 463.476 423.425 463.307 426.718C463.324 429.594 462.706 432.439 461.498 435.049C460.264 437.807 458.482 440.286 456.26 442.333C454.15 444.218 451.714 445.702 449.071 446.713C442.905 448.861 436.193 448.861 430.027 446.713C427.214 445.64 424.642 444.022 422.456 441.952C420.238 439.781 418.446 437.213 417.172 434.383C416.039 431.589 415.504 428.589 415.6 425.575C415.511 423.033 415.965 420.501 416.934 418.149C417.859 415.886 419.182 413.806 420.838 412.007L410.458 401.343C409.022 402.587 407.772 404.03 406.745 405.628C405.377 407.635 404.243 409.791 403.364 412.055C402.409 414.278 401.675 416.591 401.174 418.958C400.803 421.129 400.612 423.326 400.603 425.528C400.54 430.685 401.461 435.807 403.317 440.62C405.024 445.374 407.68 449.731 411.125 453.426C414.566 457.052 418.736 459.908 423.361 461.805C433.717 465.805 445.191 465.805 455.546 461.805C455.833 461.717 456.105 461.588 456.356 461.424H456.641L457.403 460.996C458.219 460.659 459 460.245 459.736 459.758C462.952 457.844 465.844 455.434 468.306 452.617C471.591 448.787 474.069 444.334 475.591 439.525C477.207 434.632 477.917 429.485 477.685 424.338C477.566 422.116 477.296 419.905 476.876 417.72C476.365 415.438 475.647 413.208 474.734 411.055L474.305 410.103C473.528 408.189 472.538 406.368 471.353 404.676C470.276 403.114 468.958 401.732 467.449 400.582L466.402 401.772L457.498 411.674C459.037 413.314 460.321 415.176 461.307 417.197Z" fill="white"/>
</svg>
